<svg xmlns="http://www.w3.org/2000/svg" width="1200" height="1200" viewBox="0 0 600 600">
  <!-- Red Circle Border -->
  <circle cx="300" cy="300" r="280" fill="#FFFFFF" stroke="#B10000" stroke-width="20"/>
  
  <!-- ITM Logo Text -->
  <g transform="translate(80, 170)">
    <!-- I -->
    <rect x="20" y="0" width="30" height="20" fill="#B10000"/>
    <rect x="20" y="30" width="30" height="20" fill="#B10000"/>
    <rect x="20" y="60" width="30" height="20" fill="#B10000"/>
    <rect x="20" y="90" width="30" height="20" fill="#B10000"/>
    <rect x="20" y="120" width="30" height="20" fill="#B10000"/>
    
    <!-- T -->
    <rect x="80" y="0" width="120" height="20" fill="#B10000"/>
    <rect x="130" y="30" width="30" height="20" fill="#B10000"/>
    <rect x="130" y="60" width="30" height="20" fill="#B10000"/>
    <rect x="130" y="90" width="30" height="20" fill="#B10000"/>
    <rect x="130" y="120" width="30" height="20" fill="#B10000"/>
    
    <!-- M -->
    <rect x="230" y="0" width="30" height="20" fill="#B10000"/>
    <rect x="230" y="30" width="30" height="20" fill="#B10000"/>
    <rect x="230" y="60" width="30" height="20" fill="#B10000"/>
    <rect x="230" y="90" width="30" height="20" fill="#B10000"/>
    <rect x="230" y="120" width="30" height="20" fill="#B10000"/>
    
    <rect x="270" y="30" width="20" height="20" fill="#B10000"/>
    <rect x="300" y="60" width="20" height="20" fill="#B10000"/>
    <rect x="330" y="30" width="20" height="20" fill="#B10000"/>
    
    <rect x="360" y="0" width="30" height="20" fill="#B10000"/>
    <rect x="360" y="30" width="30" height="20" fill="#B10000"/>
    <rect x="360" y="60" width="30" height="20" fill="#B10000"/>
    <rect x="360" y="90" width="30" height="20" fill="#B10000"/>
    <rect x="360" y="120" width="30" height="20" fill="#B10000"/>
  </g>
  
  <!-- Horizontal lines -->
  <g stroke="#B10000" stroke-width="1">
    <line x1="80" y1="160" x2="520" y2="160" />
    <line x1="80" y1="170" x2="520" y2="170" />
    <line x1="80" y1="180" x2="520" y2="180" />
    <line x1="80" y1="190" x2="520" y2="190" />
    <line x1="80" y1="200" x2="520" y2="200" />
    <line x1="80" y1="210" x2="520" y2="210" />
    <line x1="80" y1="220" x2="520" y2="220" />
    <line x1="80" y1="230" x2="520" y2="230" />
    <line x1="80" y1="240" x2="520" y2="240" />
    <line x1="80" y1="250" x2="520" y2="250" />
    <line x1="80" y1="260" x2="520" y2="260" />
    <line x1="80" y1="270" x2="520" y2="270" />
    <line x1="80" y1="280" x2="520" y2="280" />
    <line x1="80" y1="290" x2="520" y2="290" />
    <line x1="80" y1="300" x2="520" y2="300" />
    <line x1="80" y1="310" x2="520" y2="310" />
    <line x1="80" y1="320" x2="520" y2="320" />
    <line x1="80" y1="330" x2="520" y2="330" />
    <line x1="80" y1="340" x2="520" y2="340" />
  </g>
  
  <!-- Text Below Logo -->
  <text x="300" y="380" font-family="Arial" font-size="18" font-weight="bold" fill="#B10000" text-anchor="middle">INSTITUTE OF TECHNOLOGY</text>
  <text x="300" y="400" font-family="Arial" font-size="18" font-weight="bold" fill="#B10000" text-anchor="middle">&amp; MANAGEMENT</text>
  <text x="300" y="430" font-family="Arial" font-size="16" fill="#B10000" text-anchor="middle">GWALIOR • MP • INDIA</text>
</svg>